<mxfile host="app.diagrams.net" agent="Mozilla/5.0 (X11; Linux x86_64) AppleWebKit/537.36 (KHTML, like Gecko) Chrome/133.0.0.0 Safari/537.36 Edg/133.0.0.0" version="26.0.14">
  <diagram name="Página-1" id="p2EKxRobEqXZzoPl5qkg">
    <mxGraphModel dx="1426" dy="761" grid="1" gridSize="10" guides="1" tooltips="1" connect="1" arrows="1" fold="1" page="1" pageScale="1" pageWidth="827" pageHeight="1169" math="0" shadow="0">
      <root>
        <mxCell id="0" />
        <mxCell id="1" parent="0" />
        <mxCell id="ggnJtgibePCQ1vtAbxm--2" value="Organizador" style="shape=umlActor;verticalLabelPosition=bottom;verticalAlign=top;html=1;" parent="1" vertex="1">
          <mxGeometry x="150" y="190" width="30" height="60" as="geometry" />
        </mxCell>
        <mxCell id="VyXE9Kzk0IorjN7kaWU_-1" value="coffeeBreak - Core Use Cases" style="shape=umlFrame;whiteSpace=wrap;html=1;pointerEvents=0;recursiveResize=0;container=1;collapsible=0;width=160;" vertex="1" parent="1">
          <mxGeometry x="250" y="60" width="300" height="300" as="geometry" />
        </mxCell>
        <mxCell id="VyXE9Kzk0IorjN7kaWU_-4" value="Gestão de Utilizadores" style="ellipse;whiteSpace=wrap;html=1;" vertex="1" parent="VyXE9Kzk0IorjN7kaWU_-1">
          <mxGeometry x="20" y="40" width="110" height="50" as="geometry" />
        </mxCell>
        <mxCell id="VyXE9Kzk0IorjN7kaWU_-6" value="Gestão de Atividades" style="ellipse;whiteSpace=wrap;html=1;" vertex="1" parent="VyXE9Kzk0IorjN7kaWU_-1">
          <mxGeometry x="20" y="110" width="110" height="50" as="geometry" />
        </mxCell>
        <mxCell id="VyXE9Kzk0IorjN7kaWU_-7" value="Gestão de Plugins" style="ellipse;whiteSpace=wrap;html=1;" vertex="1" parent="VyXE9Kzk0IorjN7kaWU_-1">
          <mxGeometry x="20" y="170" width="110" height="50" as="geometry" />
        </mxCell>
        <mxCell id="VyXE9Kzk0IorjN7kaWU_-8" value="Gestão de Página do Evento" style="ellipse;whiteSpace=wrap;html=1;" vertex="1" parent="VyXE9Kzk0IorjN7kaWU_-1">
          <mxGeometry x="20" y="240" width="110" height="50" as="geometry" />
        </mxCell>
        <mxCell id="VyXE9Kzk0IorjN7kaWU_-20" value="Ver Atividades" style="ellipse;whiteSpace=wrap;html=1;" vertex="1" parent="VyXE9Kzk0IorjN7kaWU_-1">
          <mxGeometry x="164" y="60" width="110" height="50" as="geometry" />
        </mxCell>
        <mxCell id="VyXE9Kzk0IorjN7kaWU_-21" value="Interagir com as Atividades" style="ellipse;whiteSpace=wrap;html=1;" vertex="1" parent="VyXE9Kzk0IorjN7kaWU_-1">
          <mxGeometry x="164" y="125" width="110" height="50" as="geometry" />
        </mxCell>
        <mxCell id="VyXE9Kzk0IorjN7kaWU_-22" value="Ver Página do Evento" style="ellipse;whiteSpace=wrap;html=1;" vertex="1" parent="VyXE9Kzk0IorjN7kaWU_-1">
          <mxGeometry x="164" y="200" width="110" height="50" as="geometry" />
        </mxCell>
        <mxCell id="VyXE9Kzk0IorjN7kaWU_-10" value="" style="endArrow=classic;html=1;rounded=0;entryX=0.045;entryY=0.66;entryDx=0;entryDy=0;entryPerimeter=0;exitX=1;exitY=0.3333333333333333;exitDx=0;exitDy=0;exitPerimeter=0;" edge="1" parent="1" source="ggnJtgibePCQ1vtAbxm--2" target="VyXE9Kzk0IorjN7kaWU_-4">
          <mxGeometry width="50" height="50" relative="1" as="geometry">
            <mxPoint x="180" y="200" as="sourcePoint" />
            <mxPoint x="230" y="150" as="targetPoint" />
          </mxGeometry>
        </mxCell>
        <mxCell id="VyXE9Kzk0IorjN7kaWU_-11" value="" style="endArrow=classic;html=1;rounded=0;entryX=0;entryY=0.5;entryDx=0;entryDy=0;exitX=1;exitY=0.3333333333333333;exitDx=0;exitDy=0;exitPerimeter=0;" edge="1" parent="1" source="ggnJtgibePCQ1vtAbxm--2" target="VyXE9Kzk0IorjN7kaWU_-6">
          <mxGeometry width="50" height="50" relative="1" as="geometry">
            <mxPoint x="190" y="220" as="sourcePoint" />
            <mxPoint x="285" y="143" as="targetPoint" />
          </mxGeometry>
        </mxCell>
        <mxCell id="VyXE9Kzk0IorjN7kaWU_-12" value="" style="endArrow=classic;html=1;rounded=0;entryX=0;entryY=0.5;entryDx=0;entryDy=0;exitX=1;exitY=0.3333333333333333;exitDx=0;exitDy=0;exitPerimeter=0;" edge="1" parent="1" source="ggnJtgibePCQ1vtAbxm--2" target="VyXE9Kzk0IorjN7kaWU_-7">
          <mxGeometry width="50" height="50" relative="1" as="geometry">
            <mxPoint x="190" y="220" as="sourcePoint" />
            <mxPoint x="280" y="205" as="targetPoint" />
          </mxGeometry>
        </mxCell>
        <mxCell id="VyXE9Kzk0IorjN7kaWU_-13" value="" style="endArrow=classic;html=1;rounded=0;entryX=0;entryY=0.5;entryDx=0;entryDy=0;exitX=1;exitY=0.3333333333333333;exitDx=0;exitDy=0;exitPerimeter=0;" edge="1" parent="1" source="ggnJtgibePCQ1vtAbxm--2" target="VyXE9Kzk0IorjN7kaWU_-8">
          <mxGeometry width="50" height="50" relative="1" as="geometry">
            <mxPoint x="190" y="220" as="sourcePoint" />
            <mxPoint x="280" y="265" as="targetPoint" />
          </mxGeometry>
        </mxCell>
        <mxCell id="VyXE9Kzk0IorjN7kaWU_-23" value="Participante" style="shape=umlActor;verticalLabelPosition=bottom;verticalAlign=top;html=1;" vertex="1" parent="1">
          <mxGeometry x="630" y="100" width="30" height="60" as="geometry" />
        </mxCell>
        <mxCell id="VyXE9Kzk0IorjN7kaWU_-26" value="Público" style="shape=umlActor;verticalLabelPosition=bottom;verticalAlign=top;html=1;" vertex="1" parent="1">
          <mxGeometry x="630" y="210" width="30" height="60" as="geometry" />
        </mxCell>
        <mxCell id="VyXE9Kzk0IorjN7kaWU_-27" value="" style="endArrow=classic;html=1;rounded=0;exitX=0;exitY=0.3333333333333333;exitDx=0;exitDy=0;exitPerimeter=0;entryX=1;entryY=0.5;entryDx=0;entryDy=0;" edge="1" parent="1" source="VyXE9Kzk0IorjN7kaWU_-26" target="VyXE9Kzk0IorjN7kaWU_-20">
          <mxGeometry width="50" height="50" relative="1" as="geometry">
            <mxPoint x="720" y="250" as="sourcePoint" />
            <mxPoint x="770" y="200" as="targetPoint" />
          </mxGeometry>
        </mxCell>
        <mxCell id="VyXE9Kzk0IorjN7kaWU_-28" value="" style="endArrow=classic;html=1;rounded=0;exitX=0;exitY=0.3333333333333333;exitDx=0;exitDy=0;exitPerimeter=0;entryX=1;entryY=0.5;entryDx=0;entryDy=0;" edge="1" parent="1" source="VyXE9Kzk0IorjN7kaWU_-26" target="VyXE9Kzk0IorjN7kaWU_-22">
          <mxGeometry width="50" height="50" relative="1" as="geometry">
            <mxPoint x="630" y="295" as="sourcePoint" />
            <mxPoint x="524" y="210" as="targetPoint" />
          </mxGeometry>
        </mxCell>
        <mxCell id="VyXE9Kzk0IorjN7kaWU_-29" value="" style="endArrow=classic;html=1;rounded=0;exitX=0;exitY=0.3333333333333333;exitDx=0;exitDy=0;exitPerimeter=0;entryX=1;entryY=0.5;entryDx=0;entryDy=0;" edge="1" parent="1" source="VyXE9Kzk0IorjN7kaWU_-23" target="VyXE9Kzk0IorjN7kaWU_-21">
          <mxGeometry width="50" height="50" relative="1" as="geometry">
            <mxPoint x="630" y="90" as="sourcePoint" />
            <mxPoint x="680" y="40" as="targetPoint" />
          </mxGeometry>
        </mxCell>
      </root>
    </mxGraphModel>
  </diagram>
</mxfile>
